<?xml version="1.0" encoding="UTF-8" standalone="no"?>
<!-- Generator: Adobe Illustrator 21.1.0, SVG Export Plug-In . SVG Version: 6.00 Build 0)  -->
<svg xmlns:dc="http://purl.org/dc/elements/1.1/" xmlns:cc="http://creativecommons.org/ns#" xmlns:rdf="http://www.w3.org/1999/02/22-rdf-syntax-ns#" xmlns:svg="http://www.w3.org/2000/svg" xmlns="http://www.w3.org/2000/svg" xmlns:sodipodi="http://sodipodi.sourceforge.net/DTD/sodipodi-0.dtd" xmlns:inkscape="http://www.inkscape.org/namespaces/inkscape" version="1.1" id="Calque_1" x="0px" y="0px" viewBox="0 0 244.60001 70.099998" xml:space="preserve" sodipodi:docname="public3.svg" width="244.60001" height="70.099998" inkscape:version="0.92.4 (5da689c313, 2019-01-14)"><metadata id="metadata25"><rdf:RDF><cc:Work rdf:about=""><dc:format>image/svg+xml</dc:format><dc:type rdf:resource="http://purl.org/dc/dcmitype/StillImage"/><dc:title/></cc:Work></rdf:RDF></metadata><defs id="defs23"/><sodipodi:namedview pagecolor="#ffffff" bordercolor="#666666" borderopacity="1" objecttolerance="10" gridtolerance="10" guidetolerance="10" inkscape:pageopacity="0" inkscape:pageshadow="2" inkscape:window-width="1920" inkscape:window-height="1017" id="namedview21" showgrid="false" fit-margin-top="0" fit-margin-left="0" fit-margin-right="0" fit-margin-bottom="0" inkscape:zoom="1.2655738" inkscape:cx="-61.581606" inkscape:cy="4.393782" inkscape:window-x="-8" inkscape:window-y="-8" inkscape:window-maximized="1" inkscape:current-layer="Calque_1"/>
<g id="g18" transform="translate(-28,-33.4)" style="fill:#fffafa">
	<g id="g16" style="fill:#fffafa">
		<path d="m 47.5,88.6 c 2.8,-18.4 5.6,-36.7 8.5,-55.1 4,0 6.1,0 10.1,0 -3.7,22.2 -7.3,44.4 -10.9,66.6 -6.5,0.7 -9.8,1.1 -16.4,1.9 C 35.2,79.2 31.6,56.3 28,33.4 c 4.4,0 6.7,0 11.1,0 2.9,18.5 5.6,36.8 8.4,55.2 z" id="path2" inkscape:connector-curvature="0" style="fill:#fffafa"/>
		<path d="m 81.7,33.5 c 0,16.5 -0.1,33 -0.1,49.5 0,4.6 2.2,6.1 5.7,5.9 3.5,-0.2 5.7,-2 5.7,-6.5 0,-16.3 0.1,-32.6 0.1,-48.9 4.2,0 6.2,0 10.4,0 0,15.9 -0.1,31.8 -0.1,47.8 0,10 -5.6,16 -16.4,16.8 -10.8,0.8 -16.4,-4.6 -16.4,-15 0,-16.5 0.1,-33 0.1,-49.6 4.4,0 6.6,0 11,0 z" id="path4" inkscape:connector-curvature="0" style="fill:#fffafa"/>
		<path d="m 122,59.6 c 6,-0.1 9.1,-0.1 15.1,-0.2 0,3.5 0,5.3 0,8.8 -6,0.1 -9.1,0.1 -15.1,0.2 0,7.3 0,10.9 0,18.1 7.6,-0.2 11.4,-0.3 19,-0.4 0,3.5 0,5.3 0,8.8 -10,0.1 -20.1,0.4 -30.1,0.8 0,-20.8 0.1,-41.6 0.1,-62.3 10,0 20,0 30,0 0,3.5 0,5.3 0,8.8 -7.6,0 -11.4,0 -19,0.1 0,6.9 0,10.4 0,17.3 z" id="path6" inkscape:connector-curvature="0" style="fill:#fffafa"/>
		<path d="m 158.8,60.8 c 5.7,0 8.5,0 14.2,0.1 0,3.5 0,5.3 0,8.8 -5.7,-0.1 -8.5,-0.1 -14.2,-0.1 0,10.2 0,15.2 0,25.4 -4.4,0 -6.6,0 -11,0 0,-20.5 0,-41 0,-61.5 9.7,0 19.4,0 29.1,0 0,3.5 0,5.3 0,8.8 -7.2,0 -10.9,0 -18.1,-0.1 0,7.5 0,11.2 0,18.6 z" id="path8" inkscape:connector-curvature="0" style="fill:#fffafa"/>
		<path d="m 182.2,33.5 c 4.4,0 6.6,0 11,0 0,17.9 0.1,35.7 0.1,53.6 7.2,0.3 10.9,0.5 18.1,0.9 0,3.6 0,5.4 0,9.1 -9.7,-0.7 -19.4,-1.2 -29.1,-1.5 -0.1,-20.7 -0.1,-41.4 -0.1,-62.1 z" id="path10" inkscape:connector-curvature="0" style="fill:#fffafa"/>
		<path d="m 216.1,33.5 c 4.4,0 6.6,0 11,0 0,21.6 0.1,43.2 0.1,64.8 -4.4,-0.4 -6.6,-0.6 -11,-0.9 0,-21.3 -0.1,-42.6 -0.1,-63.9 z" id="path12" inkscape:connector-curvature="0" style="fill:#fffafa"/>
		<path d="m 271.8,33.5 c -3.8,11.1 -7.6,22.2 -11.5,33.2 4.2,12.2 8.3,24.5 12.3,36.8 -4.6,-0.6 -6.9,-1 -11.6,-1.5 -2.9,-9.3 -5.9,-18.5 -9,-27.8 -3.6,10.4 -5.4,15.5 -9,25.6 -4.1,-0.4 -6.2,-0.6 -10.3,-1 4.1,-11 8.2,-22 12.2,-33 -3.8,-10.8 -7.7,-21.6 -11.5,-32.3 4.6,0 6.8,0 11.4,0 3.3,9.8 5,14.8 8.3,24.9 3.4,-9.8 5.1,-14.8 8.5,-24.9 4.1,0 6.1,0 10.2,0 z" id="path14" inkscape:connector-curvature="0" style="fill:#fffafa"/>
	</g>
</g>
</svg>